<?xml version="1.0" encoding="UTF-8"?>
<svg xmlns="http://www.w3.org/2000/svg" width="6in" height="1050" viewBox="0 0 624 1050">
<style>.lane{stroke:#9CA3AF;stroke-width:2}.board-background{fill:#000}.board-canvas{fill:#E5E7EB}.board-structure,.overview-background,.section-background,.plant-background{fill:#000}.board-guide{stroke:#6B7280;stroke-width:1;stroke-dasharray:5 7}.physical-track{stroke:#FFF;stroke-width:6;stroke-linecap:square}.overview-track{stroke:#FFF;stroke-width:2;stroke-linecap:square}.overview-turnout{stroke:#FFF;stroke-width:2;fill:none}.dark-track{fill:#000;stroke:#FFF;stroke-width:2}.track-circuit-lamp{fill:#DC2626;stroke:#7F1D1D;stroke-width:1}.frog-lamp{fill:#FACC15;stroke:#A16207;stroke-width:1}.route{fill:none;stroke:#B45309;stroke-width:5}.route-overlay-track{fill:none;stroke-width:3;stroke-linecap:round;pointer-events:none}.route-aspect-head{stroke:#FFF;stroke-width:1.5;pointer-events:none}.route-aspect-flashing{stroke-dasharray:2 2}.route-list-title{font:16px sans-serif;font-weight:bold;fill:#FFF}.route-list-item{font:13px sans-serif;fill:#BFDBFE;cursor:pointer}.route-list-item:hover{fill:#FDE047;text-decoration:underline}.board-route{fill:none;stroke-width:4;stroke-linejoin:round;stroke-linecap:round;opacity:0;pointer-events:none}.item{fill:#FFFBEB;stroke:#92400E;stroke-width:2}.board-item{fill:#FFFBEB;stroke:#6B7280;stroke-width:1.5}.label{font:12px sans-serif;fill:#111827}.node-label{font-family:sans-serif;fill:#111827;text-anchor:middle}.meta{font:16px sans-serif;font-weight:bold;fill:#111827}.board-title{font:20px sans-serif;font-weight:bold;fill:#FFF}.section-label{font:14px sans-serif;font-weight:bold;fill:#FFF;text-anchor:middle}.board-note{font:13px sans-serif;fill:#D1D5DB}.lane-label{font:12px sans-serif;fill:#D1D5DB}.legend-title{font:16px sans-serif;font-weight:bold;fill:#FFF}.legend-text{font:12px sans-serif;fill:#FFF}.legend-line{stroke-width:5;stroke-linecap:round}.switch-normal,.switch-leg{stroke:#FFF;stroke-width:6;fill:none}.switch-actuator{stroke:#FFF;stroke-width:2}.lock-actuator{fill:#FFF}.mast{stroke:#FFF;stroke-width:4;fill:none}.switch-gap{stroke:#000;stroke-width:10}.switch-label,.terminal-label,.signal-label{font:12px sans-serif;fill:#FFF}.debug-label{font:12px sans-serif;fill:#60A5FA;text-anchor:middle}.track-name-label{font:12px sans-serif;font-weight:bold;fill:#7C2D12}.switch-label{text-anchor:middle}.terminal-label{text-anchor:end}.local-terminal-label{text-anchor:middle}.outside-left{text-anchor:start}.outside-right{text-anchor:end}.terminal-right{text-anchor:start}.signal-label{text-anchor:middle}.signal-head{fill:#000;stroke:#FFF;stroke-width:3}.irj-gap,.signal-irj{stroke:#000;stroke-width:12}.route-indication{font:12px sans-serif;fill:#FDE047;text-anchor:middle;opacity:0}</style>
<script><![CDATA[function showRoute(id){document.querySelectorAll(".route-overlay").forEach(function(item){item.style.display="none";});document.getElementById(id).style.display="block";}]]></script>
<rect class="board-canvas" width="624" height="1050"/>
<rect class="board-structure" x="24" y="16" width="576" height="1034"/>
<rect class="overview-background" x="24" y="16" width="576" height="58"/>
<rect class="section-background" x="24" y="82" width="576" height="38"/>
<rect class="plant-background" x="24" y="130" width="576" height="920"/>
<line class="overview-track" x1="24" y1="50" x2="69" y2="50"/>
<line class="overview-track" x1="83" y1="50" x2="87" y2="50"/>
<line class="overview-track" x1="133" y1="50" x2="233" y2="50"/>
<line class="overview-track" x1="168" y1="68" x2="216" y2="68"/>
<line class="overview-track" x1="247" y1="50" x2="260" y2="50"/>
<line class="overview-track" x1="306" y1="50" x2="324" y2="50"/>
<line class="overview-track" x1="229" y1="68" x2="600" y2="68"/>
<line class="overview-track" x1="338" y1="50" x2="401" y2="50"/>
<line class="overview-track" x1="415" y1="50" x2="433" y2="50"/>
<line class="overview-track" x1="479" y1="50" x2="522" y2="50"/>
<line class="overview-track" x1="535" y1="50" x2="600" y2="50"/>
<line class="overview-track" x1="69" y1="50" x2="83" y2="50"/>
<line class="overview-track" x1="233" y1="50" x2="247" y2="50"/>
<line class="overview-track" x1="216" y1="68" x2="229" y2="68"/>
<line class="overview-track" x1="324" y1="50" x2="338" y2="50"/>
<line class="overview-track" x1="401" y1="50" x2="415" y2="50"/>
<line class="overview-track" x1="522" y1="50" x2="535" y2="50"/>
<line class="overview-track" x1="105" y1="68" x2="168" y2="68"/>
<g data-switch="783">
<line class="overview-turnout" data-from="N" data-to="C" x1="133" y1="50" x2="87" y2="50"/>
<line class="overview-turnout" data-from="C" data-to="R" x1="87" y1="50" x2="105" y2="68"/>
</g>
<g data-switch="795">
<line class="overview-turnout" data-from="N" data-to="C" x1="260" y1="50" x2="306" y2="50"/>
<line class="overview-turnout" data-from="C" data-to="R" x1="306" y1="50" x2="288" y2="32"/>
</g>
<g data-switch="799">
<line class="overview-turnout" data-from="N" data-to="C" x1="479" y1="50" x2="433" y2="50"/>
<line class="overview-turnout" data-from="C" data-to="R" x1="433" y1="50" x2="451" y2="32"/>
</g>
<text class="section-label" x="110" y="108">CP Luchessa</text>
<text class="section-label" x="283" y="108">CP Gilroy</text>
<text class="section-label" x="456" y="108">CP Carnadero</text>
<line class="physical-track" x1="24" y1="310" x2="69" y2="310"/>
<rect class="dark-track" x="13" y="177" width="73" height="6"/>
<line class="physical-track" x1="83" y1="310" x2="87" y2="310"/>
<line class="physical-track" x1="100" y1="180" x2="147" y2="180"/>
<line class="physical-track" x1="133" y1="310" x2="233" y2="310"/>
<line class="physical-track" x1="168" y1="440" x2="216" y2="440"/>
<line class="physical-track" x1="160" y1="180" x2="190" y2="180"/>
<line class="physical-track" x1="204" y1="180" x2="226" y2="180"/>
<line class="physical-track" x1="247" y1="310" x2="260" y2="310"/>
<line class="physical-track" x1="306" y1="310" x2="324" y2="310"/>
<line class="physical-track" x1="229" y1="440" x2="600" y2="440"/>
<line class="physical-track" x1="338" y1="310" x2="401" y2="310"/>
<line class="physical-track" x1="415" y1="310" x2="433" y2="310"/>
<line class="physical-track" x1="479" y1="310" x2="522" y2="310"/>
<line class="physical-track" x1="514" y1="180" x2="562" y2="180"/>
<line class="physical-track" x1="535" y1="310" x2="600" y2="310"/>
<line class="physical-track" x1="575" y1="180" x2="600" y2="180"/>
<circle class="track-circuit-lamp" cx="47" cy="310" r="5"/>
<circle class="track-circuit-lamp" cx="123" cy="180" r="5"/>
<circle class="track-circuit-lamp" cx="415" cy="440" r="5"/>
<circle class="track-circuit-lamp" cx="370" cy="310" r="5"/>
<circle class="track-circuit-lamp" cx="568" cy="310" r="5"/>
<circle class="track-circuit-lamp" cx="588" cy="180" r="5"/>
<g data-switch="783">
<line class="switch-normal" data-from="N" data-to="C" x1="133" y1="310" x2="87" y2="310"/>
<line class="switch-normal" data-from="C" data-to="R" x1="87" y1="310" x2="168" y2="440"/>
<circle class="frog-lamp" cx="87" cy="310" r="5"/>
<line class="switch-actuator" x1="65" y1="322" x2="65" y2="334"/>
<line class="switch-actuator" x1="69" y1="322" x2="69" y2="334"/>
<line class="switch-actuator" x1="73" y1="322" x2="73" y2="334"/>
<line class="switch-actuator" x1="62" y1="334" x2="76" y2="334"/>
<text class="switch-label" x="110" y="290">SW783</text>
</g>
<g data-switch="795">
<line class="switch-normal" data-from="N" data-to="C" x1="260" y1="310" x2="306" y2="310"/>
<line class="switch-normal" data-from="C" data-to="R" x1="306" y1="310" x2="226" y2="180"/>
<circle class="frog-lamp" cx="306" cy="310" r="5"/>
<path class="lock-actuator" d="M 318 286 L 330 286 L 324 296 Z"/>
<text class="switch-label" x="283" y="344">SW795</text>
</g>
<g data-switch="799">
<line class="switch-normal" data-from="N" data-to="C" x1="479" y1="310" x2="433" y2="310"/>
<line class="switch-normal" data-from="C" data-to="R" x1="433" y1="310" x2="514" y2="180"/>
<circle class="frog-lamp" cx="433" cy="310" r="5"/>
<line class="switch-actuator" x1="411" y1="322" x2="411" y2="334"/>
<line class="switch-actuator" x1="415" y1="322" x2="415" y2="334"/>
<line class="switch-actuator" x1="419" y1="322" x2="419" y2="334"/>
<line class="switch-actuator" x1="408" y1="334" x2="422" y2="334"/>
<text class="switch-label" x="456" y="344">SW799</text>
</g>
<g class="derail" data-derail="795D">
<line class="derail-gap" x1="190" y1="174" x2="204" y2="186"/>
<text class="derail-label" x="197" y="170">795D</text>
</g>
<line class="mast" x1="76" y1="323" x2="76" y2="337"/>
<line class="mast" x1="76" y1="330" x2="100" y2="330"/>
<circle class="signal-head" cx="104" cy="330" r="6"/>
<text class="signal-label" text-anchor="end" x="48" y="334">784EAB</text>
<line class="mast" x1="223" y1="413" x2="223" y2="427"/>
<line class="mast" x1="223" y1="420" x2="199" y2="420"/>
<circle class="signal-head" cx="195" cy="420" r="6"/>
<text class="signal-label" text-anchor="start" x="251" y="424">784WA</text>
<line class="mast" x1="154" y1="193" x2="154" y2="207"/>
<line class="mast" x1="154" y1="200" x2="178" y2="200"/>
<circle class="signal-head" cx="182" cy="200" r="6"/>
<text class="signal-label" text-anchor="end" x="126" y="204">784EC</text>
<line class="mast" x1="529" y1="283" x2="529" y2="297"/>
<line class="mast" x1="529" y1="290" x2="505" y2="290"/>
<circle class="signal-head" cx="501" cy="290" r="6"/>
<text class="signal-label" text-anchor="start" x="557" y="294">784WBC</text>
<line class="mast" x1="568" y1="153" x2="568" y2="167"/>
<line class="mast" x1="568" y1="160" x2="544" y2="160"/>
<circle class="signal-head" cx="540" cy="160" r="6"/>
<text class="signal-label" text-anchor="start" x="596" y="164">784WD</text>
<text class="terminal-label local-terminal-label" x="50" y="208">Industry</text>
<g id="board-edge-labels">
<text class="track-name-label outside-left" x="8" y="338">MT</text>
<text class="track-name-label outside-right" x="616" y="208">Branch</text>
<text class="track-name-label outside-right" x="616" y="338">MT1</text>
<text class="track-name-label outside-right" x="616" y="468">MT2</text>
</g>
<g id="board-debug-labels" style="display:none">
<text class="debug-label" x="47" y="298">1SA</text>
<text class="debug-label" x="123" y="168">2SA</text>
<text class="debug-label" x="415" y="428">1NA</text>
<text class="debug-label" x="370" y="298">2NAA</text>
<text class="debug-label" x="568" y="298">2NA</text>
<text class="debug-label" x="588" y="168">3NA</text>
</g>
</svg>
